<mxfile host="app.diagrams.net" modified="2024-03-20T15:26:55.513Z" agent="Mozilla/5.0 (Windows NT 10.0; Win64; x64; rv:123.0) Gecko/20100101 Firefox/123.0" etag="tQsEwmicZBYTRKsK_-0I" version="24.0.7" type="device">
  <diagram name="Page-1" id="1PGbxG-JRSsGDjTiNKqe">
    <mxGraphModel dx="1432" dy="772" grid="1" gridSize="10" guides="1" tooltips="1" connect="1" arrows="1" fold="1" page="1" pageScale="1" pageWidth="850" pageHeight="1100" math="0" shadow="0">
      <root>
        <mxCell id="0" />
        <mxCell id="1" parent="0" />
        <mxCell id="w_M9kZpoK7uKxhwz330O-2" style="rounded=0;orthogonalLoop=1;jettySize=auto;html=1;exitX=0.5;exitY=1;exitDx=0;exitDy=0;strokeColor=default;flowAnimation=0;shadow=0;jumpStyle=none;orthogonal=0;entryX=0.5;entryY=0;entryDx=0;entryDy=0;" edge="1" parent="1" source="cbEqYPbVe2UiCqQq94zS-2" target="cbEqYPbVe2UiCqQq94zS-4">
          <mxGeometry relative="1" as="geometry" />
        </mxCell>
        <mxCell id="w_M9kZpoK7uKxhwz330O-4" style="rounded=0;orthogonalLoop=1;jettySize=auto;html=1;exitX=0.5;exitY=1;exitDx=0;exitDy=0;entryX=0.5;entryY=0;entryDx=0;entryDy=0;" edge="1" parent="1" source="cbEqYPbVe2UiCqQq94zS-2" target="w_M9kZpoK7uKxhwz330O-3">
          <mxGeometry relative="1" as="geometry" />
        </mxCell>
        <mxCell id="cbEqYPbVe2UiCqQq94zS-2" value="A" style="ellipse;whiteSpace=wrap;html=1;aspect=fixed;" parent="1" vertex="1">
          <mxGeometry x="385" y="200" width="80" height="80" as="geometry" />
        </mxCell>
        <mxCell id="cbEqYPbVe2UiCqQq94zS-4" value="B" style="ellipse;whiteSpace=wrap;html=1;aspect=fixed;" parent="1" vertex="1">
          <mxGeometry x="200" y="360" width="80" height="80" as="geometry" />
        </mxCell>
        <mxCell id="w_M9kZpoK7uKxhwz330O-3" value="C" style="ellipse;whiteSpace=wrap;html=1;aspect=fixed;" vertex="1" parent="1">
          <mxGeometry x="560" y="360" width="80" height="80" as="geometry" />
        </mxCell>
        <mxCell id="w_M9kZpoK7uKxhwz330O-6" style="edgeStyle=orthogonalEdgeStyle;rounded=0;orthogonalLoop=1;jettySize=auto;html=1;exitX=1;exitY=0;exitDx=0;exitDy=0;entryX=0.5;entryY=1;entryDx=0;entryDy=0;" edge="1" parent="1" source="w_M9kZpoK7uKxhwz330O-5" target="w_M9kZpoK7uKxhwz330O-3">
          <mxGeometry relative="1" as="geometry" />
        </mxCell>
        <mxCell id="w_M9kZpoK7uKxhwz330O-5" value="D" style="ellipse;whiteSpace=wrap;html=1;aspect=fixed;" vertex="1" parent="1">
          <mxGeometry x="385" y="520" width="80" height="80" as="geometry" />
        </mxCell>
      </root>
    </mxGraphModel>
  </diagram>
</mxfile>
